<mxfile host="app.diagrams.net" modified="2024-07-22T14:44:11.424Z" agent="Mozilla/5.0 (Windows NT 10.0; Win64; x64) AppleWebKit/537.36 (KHTML, like Gecko) Chrome/122.0.0.0 Safari/537.36 Edg/122.0.0.0" etag="uZzdGyDOh0HmVG_S3Zqf" version="24.7.1" type="github">
  <diagram id="C5RBs43oDa-KdzZeNtuy" name="Page-1">
    <mxGraphModel dx="1554" dy="-377" grid="0" gridSize="10" guides="1" tooltips="1" connect="1" arrows="1" fold="1" page="0" pageScale="1" pageWidth="827" pageHeight="1169" background="none" math="0" shadow="1">
      <root>
        <mxCell id="WIyWlLk6GJQsqaUBKTNV-0" />
        <mxCell id="WIyWlLk6GJQsqaUBKTNV-1" parent="WIyWlLk6GJQsqaUBKTNV-0" />
        <mxCell id="CYCajpZrbKualnu32Fcx-99" value="数据标准化" style="whiteSpace=wrap;strokeWidth=2;verticalAlign=top;labelBackgroundColor=none;labelBorderColor=none;rounded=1;shadow=1;fillColor=#d5e8d4;strokeColor=#82b366;fontStyle=3;textShadow=1;" vertex="1" parent="WIyWlLk6GJQsqaUBKTNV-1">
          <mxGeometry x="111" y="1697" width="264" height="192" as="geometry" />
        </mxCell>
        <mxCell id="CYCajpZrbKualnu32Fcx-100" value="归一化" style="whiteSpace=wrap;strokeWidth=2;labelBackgroundColor=none;labelBorderColor=none;fillColor=#d5e8d4;strokeColor=#82b366;fontStyle=3;textShadow=1;" vertex="1" parent="WIyWlLk6GJQsqaUBKTNV-1">
          <mxGeometry x="146" y="1830" width="64" height="33" as="geometry" />
        </mxCell>
        <mxCell id="CYCajpZrbKualnu32Fcx-101" value="标准化" style="whiteSpace=wrap;strokeWidth=2;labelBackgroundColor=none;labelBorderColor=none;fillColor=#d5e8d4;strokeColor=#82b366;fontStyle=3;textShadow=1;" vertex="1" parent="WIyWlLk6GJQsqaUBKTNV-1">
          <mxGeometry x="260" y="1830" width="65" height="33" as="geometry" />
        </mxCell>
        <mxCell id="CYCajpZrbKualnu32Fcx-102" value="数据标准化" style="whiteSpace=wrap;strokeWidth=2;labelBackgroundColor=none;labelBorderColor=none;fillColor=#d5e8d4;strokeColor=#82b366;fontStyle=3;textShadow=1;" vertex="1" parent="WIyWlLk6GJQsqaUBKTNV-1">
          <mxGeometry x="244" y="1722" width="97" height="33" as="geometry" />
        </mxCell>
        <mxCell id="CYCajpZrbKualnu32Fcx-103" value="数据变换" style="whiteSpace=wrap;strokeWidth=2;verticalAlign=top;labelBackgroundColor=none;labelBorderColor=none;rounded=1;shadow=1;fillColor=#dae8fc;strokeColor=#6c8ebf;fontStyle=3;textShadow=1;" vertex="1" parent="WIyWlLk6GJQsqaUBKTNV-1">
          <mxGeometry x="434" y="1596" width="284" height="217" as="geometry" />
        </mxCell>
        <mxCell id="CYCajpZrbKualnu32Fcx-104" value="Logit变换" style="whiteSpace=wrap;strokeWidth=2;labelBackgroundColor=none;labelBorderColor=none;fillColor=#dae8fc;strokeColor=#6c8ebf;fontStyle=3;textShadow=1;" vertex="1" parent="WIyWlLk6GJQsqaUBKTNV-1">
          <mxGeometry x="481" y="1753" width="83" height="33" as="geometry" />
        </mxCell>
        <mxCell id="CYCajpZrbKualnu32Fcx-105" value="特征工程" style="whiteSpace=wrap;strokeWidth=2;labelBackgroundColor=none;labelBorderColor=none;fillColor=#dae8fc;strokeColor=#6c8ebf;fontStyle=3;textShadow=1;" vertex="1" parent="WIyWlLk6GJQsqaUBKTNV-1">
          <mxGeometry x="615" y="1753" width="81" height="33" as="geometry" />
        </mxCell>
        <mxCell id="CYCajpZrbKualnu32Fcx-106" value="数据变换" style="whiteSpace=wrap;strokeWidth=2;labelBackgroundColor=none;labelBorderColor=none;fillColor=#dae8fc;strokeColor=#6c8ebf;fontStyle=3;textShadow=1;" vertex="1" parent="WIyWlLk6GJQsqaUBKTNV-1">
          <mxGeometry x="502" y="1647" width="81" height="33" as="geometry" />
        </mxCell>
        <mxCell id="CYCajpZrbKualnu32Fcx-107" value="处理异常值" style="whiteSpace=wrap;strokeWidth=2;verticalAlign=top;labelBackgroundColor=none;labelBorderColor=none;glass=0;shadow=1;rounded=1;fillColor=#fff2cc;strokeColor=#d6b656;fontStyle=3;textShadow=1;" vertex="1" parent="WIyWlLk6GJQsqaUBKTNV-1">
          <mxGeometry x="750" y="1613" width="459" height="192" as="geometry" />
        </mxCell>
        <mxCell id="CYCajpZrbKualnu32Fcx-108" value="检测异常值" style="whiteSpace=wrap;strokeWidth=2;labelBackgroundColor=none;labelBorderColor=none;fillColor=#fff2cc;strokeColor=#d6b656;fontStyle=3;textShadow=1;" vertex="1" parent="WIyWlLk6GJQsqaUBKTNV-1">
          <mxGeometry x="768" y="1750" width="97" height="33" as="geometry" />
        </mxCell>
        <mxCell id="CYCajpZrbKualnu32Fcx-109" value="删除异常值" style="whiteSpace=wrap;strokeWidth=2;labelBackgroundColor=none;labelBorderColor=none;fillColor=#fff2cc;strokeColor=#d6b656;fontStyle=3;textShadow=1;" vertex="1" parent="WIyWlLk6GJQsqaUBKTNV-1">
          <mxGeometry x="915" y="1750" width="97" height="33" as="geometry" />
        </mxCell>
        <mxCell id="CYCajpZrbKualnu32Fcx-110" value="替换异常值" style="whiteSpace=wrap;strokeWidth=2;labelBackgroundColor=none;labelBorderColor=none;fillColor=#fff2cc;strokeColor=#d6b656;fontStyle=3;textShadow=1;" vertex="1" parent="WIyWlLk6GJQsqaUBKTNV-1">
          <mxGeometry x="1062" y="1750" width="96" height="33" as="geometry" />
        </mxCell>
        <mxCell id="CYCajpZrbKualnu32Fcx-111" value="处理异常值" style="whiteSpace=wrap;strokeWidth=2;labelBackgroundColor=none;labelBorderColor=none;fillColor=#fff2cc;strokeColor=#d6b656;fontStyle=3;textShadow=1;" vertex="1" parent="WIyWlLk6GJQsqaUBKTNV-1">
          <mxGeometry x="851" y="1642" width="97" height="33" as="geometry" />
        </mxCell>
        <mxCell id="CYCajpZrbKualnu32Fcx-112" value="处理缺失值" style="whiteSpace=wrap;strokeWidth=2;verticalAlign=top;labelBackgroundColor=none;labelBorderColor=none;rounded=1;shadow=1;fillColor=#ffe6cc;strokeColor=#d79b00;fontStyle=3;textShadow=1;" vertex="1" parent="WIyWlLk6GJQsqaUBKTNV-1">
          <mxGeometry x="269" y="1395" width="459" height="167" as="geometry" />
        </mxCell>
        <mxCell id="CYCajpZrbKualnu32Fcx-113" value="删除缺失值" style="whiteSpace=wrap;strokeWidth=2;labelBackgroundColor=none;labelBorderColor=none;fillColor=#ffe6cc;strokeColor=#d79b00;fontStyle=3;textShadow=1;" vertex="1" parent="WIyWlLk6GJQsqaUBKTNV-1">
          <mxGeometry x="314" y="1509" width="97" height="33" as="geometry" />
        </mxCell>
        <mxCell id="CYCajpZrbKualnu32Fcx-114" value="填充缺失值" style="whiteSpace=wrap;strokeWidth=2;labelBackgroundColor=none;labelBorderColor=none;fillColor=#ffe6cc;strokeColor=#d79b00;fontStyle=3;textShadow=1;" vertex="1" parent="WIyWlLk6GJQsqaUBKTNV-1">
          <mxGeometry x="461" y="1509" width="97" height="33" as="geometry" />
        </mxCell>
        <mxCell id="CYCajpZrbKualnu32Fcx-115" value="插值或预测" style="whiteSpace=wrap;strokeWidth=2;labelBackgroundColor=none;labelBorderColor=none;fillColor=#ffe6cc;strokeColor=#d79b00;fontStyle=3;textShadow=1;" vertex="1" parent="WIyWlLk6GJQsqaUBKTNV-1">
          <mxGeometry x="607" y="1509" width="95" height="33" as="geometry" />
        </mxCell>
        <mxCell id="CYCajpZrbKualnu32Fcx-116" value="处理缺失值" style="whiteSpace=wrap;strokeWidth=2;labelBackgroundColor=none;labelBorderColor=none;fillColor=#ffe6cc;strokeColor=#d79b00;fontStyle=3;textShadow=1;" vertex="1" parent="WIyWlLk6GJQsqaUBKTNV-1">
          <mxGeometry x="534" y="1425" width="97" height="33" as="geometry" />
        </mxCell>
        <mxCell id="CYCajpZrbKualnu32Fcx-147" style="edgeStyle=orthogonalEdgeStyle;rounded=0;orthogonalLoop=1;jettySize=auto;html=1;exitX=1;exitY=0.5;exitDx=0;exitDy=0;fillColor=#f8cecc;strokeColor=#b85450;fontStyle=3;labelBorderColor=none;textShadow=1;" edge="1" parent="WIyWlLk6GJQsqaUBKTNV-1" source="CYCajpZrbKualnu32Fcx-117" target="CYCajpZrbKualnu32Fcx-118">
          <mxGeometry relative="1" as="geometry" />
        </mxCell>
        <mxCell id="CYCajpZrbKualnu32Fcx-117" value="开始" style="whiteSpace=wrap;strokeWidth=2;labelBackgroundColor=none;labelBorderColor=none;fillColor=#f8cecc;strokeColor=#b85450;fontStyle=3;textShadow=1;" vertex="1" parent="WIyWlLk6GJQsqaUBKTNV-1">
          <mxGeometry x="304" y="1317" width="81" height="33" as="geometry" />
        </mxCell>
        <mxCell id="CYCajpZrbKualnu32Fcx-149" value="" style="edgeStyle=orthogonalEdgeStyle;rounded=0;orthogonalLoop=1;jettySize=auto;html=1;fillColor=#f8cecc;strokeColor=#b85450;fontStyle=3;labelBorderColor=none;textShadow=1;" edge="1" parent="WIyWlLk6GJQsqaUBKTNV-1" source="CYCajpZrbKualnu32Fcx-118" target="CYCajpZrbKualnu32Fcx-119">
          <mxGeometry relative="1" as="geometry" />
        </mxCell>
        <mxCell id="CYCajpZrbKualnu32Fcx-118" value="数据导入" style="whiteSpace=wrap;strokeWidth=2;labelBackgroundColor=none;labelBorderColor=none;fillColor=#f8cecc;strokeColor=#b85450;fontStyle=3;textShadow=1;" vertex="1" parent="WIyWlLk6GJQsqaUBKTNV-1">
          <mxGeometry x="422" y="1317" width="80" height="33" as="geometry" />
        </mxCell>
        <mxCell id="CYCajpZrbKualnu32Fcx-119" value="检查缺失值" style="whiteSpace=wrap;strokeWidth=2;labelBackgroundColor=none;labelBorderColor=none;fillColor=#f8cecc;strokeColor=#b85450;fontStyle=3;textShadow=1;" vertex="1" parent="WIyWlLk6GJQsqaUBKTNV-1">
          <mxGeometry x="534" y="1317" width="97" height="33" as="geometry" />
        </mxCell>
        <mxCell id="CYCajpZrbKualnu32Fcx-120" value="处理重复数据" style="whiteSpace=wrap;strokeWidth=2;labelBackgroundColor=none;labelBorderColor=none;fillColor=#f8cecc;strokeColor=#b85450;fontStyle=3;textShadow=1;" vertex="1" parent="WIyWlLk6GJQsqaUBKTNV-1">
          <mxGeometry x="843" y="1509" width="113" height="33" as="geometry" />
        </mxCell>
        <mxCell id="CYCajpZrbKualnu32Fcx-146" style="edgeStyle=orthogonalEdgeStyle;rounded=0;orthogonalLoop=1;jettySize=auto;html=1;exitX=1;exitY=0.5;exitDx=0;exitDy=0;entryX=0;entryY=0.5;entryDx=0;entryDy=0;fillColor=#f8cecc;strokeColor=#b85450;fontStyle=3;labelBorderColor=none;textShadow=1;" edge="1" parent="WIyWlLk6GJQsqaUBKTNV-1" source="CYCajpZrbKualnu32Fcx-121" target="CYCajpZrbKualnu32Fcx-142">
          <mxGeometry relative="1" as="geometry" />
        </mxCell>
        <mxCell id="CYCajpZrbKualnu32Fcx-121" value="完成数据预处理" style="whiteSpace=wrap;strokeWidth=2;labelBackgroundColor=none;labelBorderColor=none;fillColor=#f8cecc;strokeColor=#b85450;fontStyle=3;textShadow=1;" vertex="1" parent="WIyWlLk6GJQsqaUBKTNV-1">
          <mxGeometry x="525.75" y="1873" width="105.25" height="33" as="geometry" />
        </mxCell>
        <mxCell id="CYCajpZrbKualnu32Fcx-124" value="" style="curved=1;startArrow=none;endArrow=block;exitX=0.49;exitY=1.01;entryX=0.49;entryY=0.01;rounded=0;labelBackgroundColor=none;labelBorderColor=none;fillColor=#f8cecc;strokeColor=#b85450;fontStyle=3;textShadow=1;" edge="1" parent="WIyWlLk6GJQsqaUBKTNV-1" source="CYCajpZrbKualnu32Fcx-119" target="CYCajpZrbKualnu32Fcx-116">
          <mxGeometry relative="1" as="geometry">
            <Array as="points" />
          </mxGeometry>
        </mxCell>
        <mxCell id="CYCajpZrbKualnu32Fcx-125" value="" style="curved=1;startArrow=none;endArrow=block;exitX=0.96;exitY=1.02;entryX=0;entryY=0.14;rounded=0;labelBackgroundColor=default;labelBorderColor=none;fillColor=#ffe6cc;strokeColor=#d79b00;fontStyle=3;textShadow=1;" edge="1" parent="WIyWlLk6GJQsqaUBKTNV-1" source="CYCajpZrbKualnu32Fcx-116" target="CYCajpZrbKualnu32Fcx-120">
          <mxGeometry relative="1" as="geometry">
            <Array as="points">
              <mxPoint x="696" y="1484" />
            </Array>
          </mxGeometry>
        </mxCell>
        <mxCell id="CYCajpZrbKualnu32Fcx-126" value="" style="curved=1;startArrow=none;endArrow=block;exitX=0.5;exitY=1;entryX=0.5;entryY=0;rounded=0;labelBackgroundColor=default;labelBorderColor=none;fillColor=#f8cecc;strokeColor=#b85450;fontStyle=3;textShadow=1;" edge="1" parent="WIyWlLk6GJQsqaUBKTNV-1" source="CYCajpZrbKualnu32Fcx-120" target="CYCajpZrbKualnu32Fcx-111">
          <mxGeometry relative="1" as="geometry">
            <Array as="points" />
          </mxGeometry>
        </mxCell>
        <mxCell id="CYCajpZrbKualnu32Fcx-127" value="" style="curved=1;startArrow=none;endArrow=block;exitX=0;exitY=1;entryX=0.99;entryY=0.33;rounded=0;labelBackgroundColor=none;labelBorderColor=none;fillColor=#fff2cc;strokeColor=#d6b656;fontStyle=3;textShadow=1;" edge="1" parent="WIyWlLk6GJQsqaUBKTNV-1" source="CYCajpZrbKualnu32Fcx-111" target="CYCajpZrbKualnu32Fcx-106">
          <mxGeometry relative="1" as="geometry">
            <Array as="points">
              <mxPoint x="763" y="1688" />
            </Array>
          </mxGeometry>
        </mxCell>
        <mxCell id="CYCajpZrbKualnu32Fcx-128" value="" style="curved=1;startArrow=none;endArrow=block;exitX=0.31;exitY=1.02;entryX=0.99;entryY=0.07;rounded=0;labelBackgroundColor=none;labelBorderColor=none;fillColor=#dae8fc;strokeColor=#6c8ebf;fontStyle=3;textShadow=1;" edge="1" parent="WIyWlLk6GJQsqaUBKTNV-1">
          <mxGeometry relative="1" as="geometry">
            <Array as="points">
              <mxPoint x="467" y="1693" />
              <mxPoint x="467" y="1743" />
            </Array>
            <mxPoint x="533.7019230769229" y="1678.5000000000002" as="sourcePoint" />
            <mxPoint x="374" y="1770.020408163265" as="targetPoint" />
          </mxGeometry>
        </mxCell>
        <mxCell id="CYCajpZrbKualnu32Fcx-129" value="" style="curved=1;startArrow=none;endArrow=block;exitX=0.67;exitY=1.01;entryX=0.5;entryY=0;rounded=0;labelBackgroundColor=none;labelBorderColor=none;fillColor=#d5e8d4;strokeColor=#82b366;entryDx=0;entryDy=0;fontStyle=3;textShadow=1;" edge="1" parent="WIyWlLk6GJQsqaUBKTNV-1" target="CYCajpZrbKualnu32Fcx-121">
          <mxGeometry relative="1" as="geometry">
            <Array as="points">
              <mxPoint x="343.33" y="1780" />
              <mxPoint x="367.33" y="1797" />
              <mxPoint x="422" y="1828" />
            </Array>
            <mxPoint x="317.9966666666665" y="1755.0000000000002" as="sourcePoint" />
            <mxPoint x="550.6106122448988" y="1873" as="targetPoint" />
          </mxGeometry>
        </mxCell>
        <mxCell id="CYCajpZrbKualnu32Fcx-130" value="" style="curved=1;startArrow=none;endArrow=block;exitX=-0.01;exitY=0.79;entryX=0.5;entryY=-0.01;rounded=0;labelBackgroundColor=none;labelBorderColor=none;fillColor=#ffe6cc;strokeColor=#d79b00;fontStyle=3;textShadow=1;" edge="1" parent="WIyWlLk6GJQsqaUBKTNV-1" source="CYCajpZrbKualnu32Fcx-116" target="CYCajpZrbKualnu32Fcx-113">
          <mxGeometry relative="1" as="geometry">
            <Array as="points">
              <mxPoint x="362" y="1484" />
            </Array>
          </mxGeometry>
        </mxCell>
        <mxCell id="CYCajpZrbKualnu32Fcx-131" value="" style="curved=1;startArrow=none;endArrow=block;exitX=0.19;exitY=1.02;entryX=0.49;entryY=-0.01;rounded=0;labelBackgroundColor=none;labelBorderColor=none;fillColor=#ffe6cc;strokeColor=#d79b00;fontStyle=3;textShadow=1;" edge="1" parent="WIyWlLk6GJQsqaUBKTNV-1" source="CYCajpZrbKualnu32Fcx-116" target="CYCajpZrbKualnu32Fcx-114">
          <mxGeometry relative="1" as="geometry">
            <Array as="points">
              <mxPoint x="509" y="1484" />
            </Array>
          </mxGeometry>
        </mxCell>
        <mxCell id="CYCajpZrbKualnu32Fcx-132" value="" style="curved=1;startArrow=none;endArrow=block;exitX=0.79;exitY=1.02;entryX=0.5;entryY=-0.01;rounded=0;labelBackgroundColor=none;labelBorderColor=none;fillColor=#ffe6cc;strokeColor=#d79b00;fontStyle=3;textShadow=1;" edge="1" parent="WIyWlLk6GJQsqaUBKTNV-1" source="CYCajpZrbKualnu32Fcx-116" target="CYCajpZrbKualnu32Fcx-115">
          <mxGeometry relative="1" as="geometry">
            <Array as="points">
              <mxPoint x="655" y="1484" />
            </Array>
          </mxGeometry>
        </mxCell>
        <mxCell id="CYCajpZrbKualnu32Fcx-133" value="" style="curved=1;startArrow=none;endArrow=block;exitX=0.16;exitY=1.01;entryX=0.5;entryY=0.01;rounded=0;labelBackgroundColor=none;labelBorderColor=none;fillColor=#fff2cc;strokeColor=#d6b656;fontStyle=3;textShadow=1;" edge="1" parent="WIyWlLk6GJQsqaUBKTNV-1" source="CYCajpZrbKualnu32Fcx-111" target="CYCajpZrbKualnu32Fcx-108">
          <mxGeometry relative="1" as="geometry">
            <Array as="points">
              <mxPoint x="817" y="1700" />
            </Array>
          </mxGeometry>
        </mxCell>
        <mxCell id="CYCajpZrbKualnu32Fcx-134" value="" style="curved=1;startArrow=none;endArrow=block;exitX=0.76;exitY=1.01;entryX=0.5;entryY=0.01;rounded=0;labelBackgroundColor=none;labelBorderColor=none;fillColor=#fff2cc;strokeColor=#d6b656;fontStyle=3;textShadow=1;" edge="1" parent="WIyWlLk6GJQsqaUBKTNV-1" source="CYCajpZrbKualnu32Fcx-111" target="CYCajpZrbKualnu32Fcx-109">
          <mxGeometry relative="1" as="geometry">
            <Array as="points">
              <mxPoint x="963" y="1700" />
            </Array>
          </mxGeometry>
        </mxCell>
        <mxCell id="CYCajpZrbKualnu32Fcx-135" value="" style="curved=1;startArrow=none;endArrow=block;exitX=1;exitY=0.8;entryX=0.5;entryY=0.01;rounded=0;labelBackgroundColor=none;labelBorderColor=none;fillColor=#fff2cc;strokeColor=#d6b656;fontStyle=3;textShadow=1;" edge="1" parent="WIyWlLk6GJQsqaUBKTNV-1" source="CYCajpZrbKualnu32Fcx-111" target="CYCajpZrbKualnu32Fcx-110">
          <mxGeometry relative="1" as="geometry">
            <Array as="points">
              <mxPoint x="1110" y="1700" />
            </Array>
          </mxGeometry>
        </mxCell>
        <mxCell id="CYCajpZrbKualnu32Fcx-136" value="" style="curved=1;startArrow=none;endArrow=block;exitX=0.5;exitY=1.02;entryX=0.51;entryY=-0.01;rounded=0;labelBackgroundColor=none;labelBorderColor=none;fillColor=#dae8fc;strokeColor=#6c8ebf;fontStyle=3;textShadow=1;" edge="1" parent="WIyWlLk6GJQsqaUBKTNV-1">
          <mxGeometry relative="1" as="geometry">
            <Array as="points" />
            <mxPoint x="559.5" y="1680.0000000000002" as="sourcePoint" />
            <mxPoint x="540.3137254901962" y="1753" as="targetPoint" />
          </mxGeometry>
        </mxCell>
        <mxCell id="CYCajpZrbKualnu32Fcx-137" value="" style="curved=1;startArrow=none;endArrow=block;exitX=0.99;exitY=0.9;entryX=0.5;entryY=-0.01;rounded=0;labelBackgroundColor=none;labelBorderColor=none;fillColor=#dae8fc;strokeColor=#6c8ebf;fontStyle=3;textShadow=1;" edge="1" parent="WIyWlLk6GJQsqaUBKTNV-1" source="CYCajpZrbKualnu32Fcx-106" target="CYCajpZrbKualnu32Fcx-105">
          <mxGeometry relative="1" as="geometry">
            <Array as="points">
              <mxPoint x="655" y="1678" />
            </Array>
          </mxGeometry>
        </mxCell>
        <mxCell id="CYCajpZrbKualnu32Fcx-138" value="" style="curved=1;startArrow=none;endArrow=block;exitX=0.02;exitY=1.01;entryX=0.5;entryY=0.01;rounded=0;labelBackgroundColor=none;labelBorderColor=none;fillColor=#d5e8d4;strokeColor=#82b366;fontStyle=3;textShadow=1;" edge="1" parent="WIyWlLk6GJQsqaUBKTNV-1" source="CYCajpZrbKualnu32Fcx-102" target="CYCajpZrbKualnu32Fcx-100">
          <mxGeometry relative="1" as="geometry">
            <Array as="points">
              <mxPoint x="178" y="1780" />
            </Array>
          </mxGeometry>
        </mxCell>
        <mxCell id="CYCajpZrbKualnu32Fcx-139" value="" style="curved=1;startArrow=none;endArrow=block;exitX=0.49;exitY=1.01;entryX=0.49;entryY=0.01;rounded=0;labelBackgroundColor=none;labelBorderColor=none;fillColor=#d5e8d4;strokeColor=#82b366;fontStyle=3;textShadow=1;" edge="1" parent="WIyWlLk6GJQsqaUBKTNV-1" source="CYCajpZrbKualnu32Fcx-102" target="CYCajpZrbKualnu32Fcx-101">
          <mxGeometry relative="1" as="geometry">
            <Array as="points">
              <mxPoint x="292" y="1780" />
            </Array>
          </mxGeometry>
        </mxCell>
        <mxCell id="CYCajpZrbKualnu32Fcx-142" value="结束" style="whiteSpace=wrap;strokeWidth=2;labelBackgroundColor=none;labelBorderColor=none;fillColor=#f8cecc;strokeColor=#b85450;fontStyle=3;textShadow=1;" vertex="1" parent="WIyWlLk6GJQsqaUBKTNV-1">
          <mxGeometry x="696" y="1873" width="78" height="33" as="geometry" />
        </mxCell>
      </root>
    </mxGraphModel>
  </diagram>
</mxfile>
